<?xml version="1.0" encoding="utf-8"?>
<!-- Designed by Vexels.com - 2016 All Rights Reserved - https://vexels.com/terms-and-conditions/  -->

<svg version="1.1" id="Capa_1" xmlns="http://www.w3.org/2000/svg" xmlns:xlink="http://www.w3.org/1999/xlink" x="0px" y="0px"
	 width="1200px" height="1200px" viewBox="0 0 1200 1200" enable-background="new 0 0 1200 1200" xml:space="preserve">
<g id="VEXELS">
</g>
<g>
	<g id="BACKGROUND">
		<g>
			<circle fill="#C02127" cx="600.001" cy="600" r="550"/>
			<path fill="#FFFFFF" d="M886.457,523.347c-11.084,145.09-78.053,201.514-100.053,220.016c-1.338,1.135-2.436,2.098-3.357,2.869
				c-5.016,4.432-21.705,14.713-44.438,23.918c-22.744,9.248-51.488,17.361-80.715,17.361c-41.752,0-75.398-16.467-100.057-48.975
				l-10.682-14.004l-44.703,162.01c-5.086,12.602-19.385,44.438-31.404,58.223c-8.4-2.469-17.172-5.305-24.545-7.963
				c-5.194-2.135-10.425-4.455-15.551-6.885c-0.737-21.191-1.035-67.484,4.682-83.914l60.068-248.283l-0.918-2.507
				c-0.264-0.665-24.662-66.633-7.002-109.346c0.257-0.662,23.913-63.197,69.871-63.197c4.018,0,8.18,0.474,12.266,1.435
				c1.959,0.479,47.842,12.385,37.621,75.879l-32.936,115.023c-0.707,2.391-16,58.996,12.082,84.646
				c3.762,4.451,25.275,28.006,62.244,28.006c20.82,0,42.602-7.553,64.789-22.404c8.18-3.867,58.377-33.021,78.641-166.025
				c0.734-5.235,16.961-128.73-53.217-182.533c-4.938-4.611-50.781-44.816-132.998-44.816c-29.002,0-59.291,5.08-90.252,15.22
				c-4.457,1.515-109.195,38.913-131.129,153.716c-1.841,6.67-18.305,70.902,25.654,139.303l1.736,2.652l2.578,0.807
				c1.182,0.807,3.286,4.756,1.072,14.555l-11.936,39.504c-2.029,0.889-6.082,1.256-10.1-0.734l-0.956-0.445
				c-3.981-1.43-97.109-37.59-77.238-201.473c0.218-1.439,21.042-143.025,161.089-195.832
				c42.188-15.854,86.377-23.922,131.445-23.922c87.49,0,146.893,30.221,147.451,30.513
				C756.958,286.49,898.623,364.105,886.457,523.347z"/>
			<path opacity="0.2" enable-background="new    " d="M1146.187,664.808c-30.145,257.189-237.785,460.158-497.164,483.033
				l-48.995-49.033V774.5c17.056,8.648,36.394,12.996,57.886,12.996c29.213,0,57.98-8.084,80.689-17.346
				c22.748-9.225,39.447-19.496,44.434-23.928c0.938-0.771,2.039-1.715,3.377-2.846c21.98-18.523,88.967-74.949,100.063-220.023
				c6.262-81.901-28.189-142.189-63.297-181.555L1146.187,664.808z"/>
			<path fill="#C02127" d="M823.169,341.794l-24.043-24.046C806.847,324.656,815.052,332.657,823.169,341.794z"/>
			<path opacity="0.2" enable-background="new    " d="M600.021,774.494v324.309L431.269,930.087
				c5.037,2.309,10.158,4.629,15.234,6.695c7.393,2.688,16.17,5.49,24.535,7.963c12.029-13.77,26.328-45.621,31.409-58.213
				l44.728-162.01l10.682,14.014C569.791,754.296,583.892,766.289,600.021,774.494z"/>
			<path fill="#FFFFFF" d="M607.533,499.988l-7.517,26.288l-25.392,88.731c-0.727,2.391-16.005,58.986,12.063,84.656
				c1.545,1.783,6.016,6.785,13.324,12.027V774.5c-16.129-8.211-30.225-20.197-42.164-35.963l-10.682-14.014l-44.727,162.01
				c-5.079,12.592-19.381,44.443-31.41,58.219c-8.365-2.475-17.143-5.271-24.535-7.959c-5.076-2.066-10.203-4.391-15.234-6.701
				c-0.123-0.092-0.203-0.125-0.326-0.164v-0.203c-0.728-21.293-1.016-67.311,4.715-83.725l60.045-248.27l-0.898-2.517
				c-0.283-0.647-24.656-66.626-7.027-109.365c0.287-0.649,23.929-63.173,69.877-63.173c4.021,0,8.204,0.449,12.266,1.426
				c1.174,0.279,18.93,4.914,30.102,23.071C607.054,458.636,611.48,475.453,607.533,499.988z"/>
			<path fill="#FFFFFF" d="M823.169,341.794l-24.043-24.046C806.847,324.656,815.052,332.657,823.169,341.794z"/>
			<path opacity="0.1" enable-background="new    " d="M886.466,523.353c-11.086,145.064-78.082,201.5-100.063,220.023
				c-1.338,1.131-2.436,2.074-3.377,2.846c-4.992,4.432-21.689,14.703-44.434,23.928c-22.709,9.262-51.473,17.346-80.689,17.346
				c-21.492,0-40.83-4.348-57.888-12.996v-62.809c10.565,7.721,27.022,15.969,48.915,15.969c20.838,0,42.611-7.557,64.799-22.387
				c8.166-3.895,58.377-33.023,78.65-166.029c0.734-5.249,16.945-128.744-53.217-182.537c-4.957-4.631-50.781-44.807-133.01-44.807
				c-2.029,0-4.104,0.041-6.133,0.084v-56.682c2.723-0.039,5.404-0.08,8.086-0.08c87.514,0,146.896,30.223,147.475,30.508
				c0.523,0.288,19.82,10.892,43.545,32.019l24.047,24.046C858.277,381.158,892.728,441.452,886.466,523.353z"/>
			<path opacity="0.1" enable-background="new    " d="M792.38,539.24c-20.273,133.004-70.48,162.139-78.65,166.033
				c-22.178,14.824-43.961,22.381-64.799,22.381c-21.893,0-38.35-8.248-48.915-15.963v-185.42l7.517-26.287
				c3.947-24.536-0.484-41.354-7.517-52.812V311.979c2.028-0.044,4.099-0.085,6.13-0.085c82.227,0,128.051,40.177,133.008,44.809
				C809.326,410.494,793.115,533.99,792.38,539.24z"/>
			<line fill="none" x1="600.021" y1="526.276" x2="600.021" y2="447.177"/>
		</g>
	</g>
</g>
</svg>
